# xmcd
#
# Track frame offsets:
#	150
#	15194
#	30078
#	49505
#	66732
#	82722
#	91121
#	107054
#	120020
#	130053
#	143292
#
# Disc length: 2076 seconds
#
# Revision: 1
# Processed by: cddbd v1.5.2PL0 Copyright (c) Steve Scherf et al.
# Submitted via: audiograbber 1.83.01
#
DISCID=6b081a0b
DTITLE=Peter Steel - WHIPS and Chains
DYEAR=1995
DGENRE=Blues
TTITLE0=Kate Street
TTITLE1=I Worry A Lot
TTITLE2=Rollercoaster
TTITLE3=Whips and Chains
TTITLE4=Gettin' Old
TTITLE5=Bottle and Harp
TTITLE6=Catherine Jean
TTITLE7=House On Fire
TTITLE8=Run On
TTITLE9=Reconciliation
TTITLE10=Snake Eyes
EXTD=
EXTT0=
EXTT1=
EXTT2=
EXTT3=
EXTT4=
EXTT5=
EXTT6=
EXTT7=
EXTT8=
EXTT9=
EXTT10=
PLAYORDER=
